<svg width="13" height="13" viewBox="0 0 13 13" fill="none" xmlns="http://www.w3.org/2000/svg">
<path d="M4.97505 8.90057V13H3.00843V3.54545H4.91966V7.16016H5.00275C5.16279 6.7416 5.42131 6.41383 5.77832 6.17685C6.13533 5.93679 6.58313 5.81676 7.12172 5.81676C7.61414 5.81676 8.04347 5.92448 8.40971 6.13991C8.77903 6.35227 9.06525 6.6585 9.26838 7.05859C9.47458 7.45561 9.57614 7.93111 9.57306 8.48508V13H7.60645V8.83594C7.60952 8.39891 7.49873 8.05883 7.27406 7.8157C7.05247 7.57256 6.74163 7.45099 6.34153 7.45099C6.07378 7.45099 5.8368 7.50793 5.63059 7.6218C5.42747 7.73568 5.26743 7.90187 5.15048 8.12038C5.03661 8.33582 4.97813 8.59588 4.97505 8.90057Z" fill="#FF6B35"/>
<path d="M0.223633 3.5L5.77642 0.723607C6.05795 0.582843 6.38932 0.582843 6.67085 0.723607L12.2236 3.5" stroke="#FF6B35"/>
<path d="M10.2236 2.5C10.2236 0.9 10.2236 0.666667 10.2236 0.5" stroke="#FF6B35"/>
</svg>
